<svg xmlns="http://www.w3.org/2000/svg" xmlns:xlink="http://www.w3.org/1999/xlink" width="46.017" height="47.887" viewBox="0 0 46.017 47.887">
  <defs>
    <filter id="Ellipse_386" x="0" y="0" width="43.192" height="43.192" filterUnits="userSpaceOnUse">
      <feOffset dy="3" input="SourceAlpha"/>
      <feGaussianBlur stdDeviation="3" result="blur"/>
      <feFlood flood-opacity="0.161"/>
      <feComposite operator="in" in2="blur"/>
      <feComposite in="SourceGraphic"/>
    </filter>
    <filter id="Rectangle_3443" x="17.169" y="18.306" width="28.848" height="29.582" filterUnits="userSpaceOnUse">
      <feOffset dy="3" input="SourceAlpha"/>
      <feGaussianBlur stdDeviation="3" result="blur-2"/>
      <feFlood flood-opacity="0.161"/>
      <feComposite operator="in" in2="blur-2"/>
      <feComposite in="SourceGraphic"/>
    </filter>
  </defs>
  <g id="Group_1210" data-name="Group 1210" transform="translate(-533.021 125.833) rotate(-41)">
    <g transform="matrix(0.75, 0.66, -0.66, 0.75, 484.83, 254.73)" filter="url(#Ellipse_386)">
      <circle id="Ellipse_386-2" data-name="Ellipse 386" cx="8.929" cy="8.929" r="8.929" transform="translate(9 17.72) rotate(-41)" fill="#737373"/>
    </g>
    <path id="Path_1021" data-name="Path 1021" d="M5.952,0A5.952,5.952,0,1,1,0,5.952,5.952,5.952,0,0,1,5.952,0Z" transform="translate(482.976 276.976)" fill="#fff"/>
    <path id="Path_734" data-name="Path 734" d="M1.9-3.936l2.142,2.76L-.192-1.2Z" transform="translate(487.019 293.621)" fill="#737373"/>
    <g transform="matrix(0.75, 0.66, -0.66, 0.75, 484.83, 254.73)" filter="url(#Rectangle_3443)">
      <path id="Rectangle_3443-2" data-name="Rectangle 3443" d="M0,0H4.232a0,0,0,0,1,0,0V9.667a2,2,0,0,1-2,2H2a2,2,0,0,1-2-2V0A0,0,0,0,1,0,0Z" transform="translate(26.17 27.08) rotate(-41)" fill="#737373"/>
    </g>
  </g>
</svg>
